<?xml version="1.0" encoding="UTF-8"?>
<svg width="79px" height="79px" viewBox="0 0 79 79" version="1.1" xmlns="http://www.w3.org/2000/svg" xmlns:xlink="http://www.w3.org/1999/xlink">
    <g id="Page-2" stroke="none" stroke-width="1" fill="none" fill-rule="evenodd">
        <g id="Artboard-2" transform="translate(-436.000000, -344.000000)" fill="#152935">
            <path d="M475.413552,393.216647 C470.141898,393.216647 465.872706,389.056535 465.872706,383.919575 C465.872706,378.784235 470.141898,374.624123 475.413552,374.624123 C480.685206,374.624123 484.952736,378.784235 484.952736,383.919575 C484.952736,389.056535 480.685206,393.216647 475.413552,393.216647 M512.946864,393.033589 L499.214962,393.033589 L499.214962,387.076918 L512.775631,387.076918 C513.907765,387.076918 514.828767,386.177829 514.828767,385.076242 L514.828767,382.764529 C514.828767,381.661321 513.907765,380.763852 512.775631,380.763852 L499.214962,380.763852 L499.214962,374.303367 L512.775631,374.303367 C513.907765,374.303367 514.828767,373.405898 514.828767,372.30269 L514.828767,369.990977 C514.828767,368.88939 513.907765,367.990301 512.775631,367.990301 L499.214962,367.990301 L499.214962,360.054013 L491.933396,360.054013 L491.933396,345.999057 C491.933396,344.89747 491.010732,344 489.878598,344 L487.509596,344 C486.3758,344 485.45646,344.89747 485.45646,345.999057 L485.45646,360.054013 L478.65202,360.054013 L478.65202,346.169155 C478.65202,345.064328 477.732681,344.166858 476.600547,344.166858 L474.22822,344.166858 C473.094423,344.166858 472.175084,345.064328 472.175084,346.169155 L472.175084,360.054013 L465.54354,360.054013 L465.54354,346.169155 C465.54354,345.064328 464.622538,344.166858 463.490404,344.166858 L461.121402,344.166858 C459.987605,344.166858 459.064941,345.064328 459.064941,346.169155 L459.064941,360.054013 L451.612142,360.054013 L451.612142,367.486486 L438.224369,367.486486 C437.090572,367.486486 436.171233,368.383956 436.171233,369.487163 L436.171233,371.798876 C436.171233,372.900463 437.090572,373.799553 438.224369,373.799553 L451.612142,373.799553 L451.612142,380.763852 L438.051473,380.763852 C436.919339,380.763852 436,381.661321 436,382.764529 L436,385.076242 C436,386.177829 436.919339,387.076918 438.051473,387.076918 L451.612142,387.076918 L451.612142,393.537403 L438.051473,393.537403 C436.919339,393.537403 436,394.434873 436,395.53808 L436,397.849793 C436,398.95138 436.919339,399.85047 438.051473,399.85047 L451.612142,399.85047 L451.612142,407.112845 L459.064941,407.112845 L459.064941,421.000943 C459.064941,421.115962 459.113152,421.216401 459.133102,421.326559 L460.78226,422.933581 C460.89697,422.953021 461.001705,423 461.121402,423 L463.490404,423 C464.622538,423 465.54354,422.10415 465.54354,421.000943 L465.54354,407.112845 L472.175084,407.112845 L472.175084,421.000943 C472.175084,422.10415 473.094423,423 474.22822,423 L476.600547,423 C477.732681,423 478.65202,422.10415 478.65202,421.000943 L478.65202,407.112845 L485.45646,407.112845 L485.45646,420.834085 C485.45646,421.937292 486.3758,422.833142 487.509596,422.833142 L489.878598,422.833142 C491.010732,422.833142 491.933396,421.937292 491.933396,420.834085 L491.933396,407.112845 L499.214962,407.112845 L499.214962,399.345035 L512.946864,399.345035 C514.080661,399.345035 515,398.447566 515,397.344359 L515,395.032646 C515,393.931059 514.080661,393.033589 512.946864,393.033589" id="Page-1-Copy-5"></path>
        </g>
    </g>
</svg>