<?xml version="1.0" encoding="UTF-8" standalone="no"?>
<svg width="51px" height="34px" viewBox="0 0 51 34" version="1.1" xmlns="http://www.w3.org/2000/svg" xmlns:xlink="http://www.w3.org/1999/xlink">
    <!-- Generator: Sketch 3.8.2 (29753) - http://www.bohemiancoding.com/sketch -->
    <title>Shape</title>
    <desc>Created with Sketch.</desc>
    <defs></defs>
    <g id="Roles" stroke="none" stroke-width="1" fill="none" fill-rule="evenodd">
        <g id="Members-Preview-Copy-3" transform="translate(-436.000000, -440.000000)" fill="rgb(53, 93, 127)">
            <path d="M441.1,453.11465 L441.1,451.9 L439.4,451.9 L439.4,450.2 L436,450.2 L436,463.8 L439.4,463.8 L439.4,462.1 L441.1,462.1 L441.1,460.88535 L444.5,461.8569 L444.5,467.2 C444.5,469.07765 446.02235,470.6 447.9,470.6 L454.7,470.6 C456.57765,470.6 458.1,469.07765 458.1,467.2 L458.1,465.7431 L487,474 L487,440 L441.1,453.11465 L441.1,453.11465 Z M456.4,467.2 C456.4,468.13755 455.63755,468.9 454.7,468.9 L447.9,468.9 C446.9633,468.9 446.2,468.13755 446.2,467.2 L446.2,462.3431 L456.4,465.25775 L456.4,467.2 L456.4,467.2 Z M485.3,471.74665 L441.1,459.11735 L441.1,454.88265 L485.3,442.2542 L485.3,471.74665 L485.3,471.74665 Z" id="Shape"></path>
        </g>
    </g>
</svg>