<?xml version="1.0" encoding="UTF-8"?>
<svg width="560px" height="330px" viewBox="0 0 560 330" version="1.1" xmlns="http://www.w3.org/2000/svg" xmlns:xlink="http://www.w3.org/1999/xlink" style="background: #FBFCFC;">
    <!-- Generator: Sketch 40.3 (33839) - http://www.bohemiancoding.com/sketch -->
    <title>Artboard</title>
    <desc>Created with Sketch.</desc>
    <defs>
        <circle id="path-1" cx="115" cy="91" r="4"></circle>
        <mask id="mask-2" maskContentUnits="userSpaceOnUse" maskUnits="objectBoundingBox" x="-2" y="-2" width="12" height="12">
            <rect x="109" y="85" width="12" height="12" fill="white"></rect>
            <use xlink:href="#path-1" fill="black"></use>
        </mask>
        <rect id="path-3" x="0" y="0" width="197" height="82" rx="2"></rect>
        <filter x="-50%" y="-50%" width="200%" height="200%" filterUnits="objectBoundingBox" id="filter-4">
            <feOffset dx="0" dy="2" in="SourceAlpha" result="shadowOffsetOuter1"></feOffset>
            <feGaussianBlur stdDeviation="23.5" in="shadowOffsetOuter1" result="shadowBlurOuter1"></feGaussianBlur>
            <feColorMatrix values="0 0 0 0 0.874509804   0 0 0 0 0.91372549   0 0 0 0 0.91372549  0 0 0 1 0" type="matrix" in="shadowBlurOuter1"></feColorMatrix>
        </filter>
        <rect id="path-5" x="0" y="7.10542736e-15" width="30" height="30" rx="15"></rect>
        <mask id="mask-6" maskContentUnits="userSpaceOnUse" maskUnits="objectBoundingBox" x="0" y="0" width="30" height="30" fill="white">
            <use xlink:href="#path-5"></use>
        </mask>
        <rect id="path-7" x="0" y="7.10542736e-15" width="30" height="30" rx="15"></rect>
        <mask id="mask-8" maskContentUnits="userSpaceOnUse" maskUnits="objectBoundingBox" x="0" y="0" width="30" height="30" fill="white">
            <use xlink:href="#path-7"></use>
        </mask>
        <rect id="path-9" x="0" y="0" width="30" height="30" rx="15"></rect>
        <mask id="mask-10" maskContentUnits="userSpaceOnUse" maskUnits="objectBoundingBox" x="0" y="0" width="30" height="30" fill="white">
            <use xlink:href="#path-9"></use>
        </mask>
        <rect id="path-11" x="0" y="7.10542736e-15" width="30" height="30" rx="15"></rect>
        <mask id="mask-12" maskContentUnits="userSpaceOnUse" maskUnits="objectBoundingBox" x="0" y="0" width="30" height="30" fill="white">
            <use xlink:href="#path-11"></use>
        </mask>
        <rect id="path-13" x="0" y="7.10542736e-15" width="30" height="30" rx="15"></rect>
        <mask id="mask-14" maskContentUnits="userSpaceOnUse" maskUnits="objectBoundingBox" x="0" y="0" width="30" height="30" fill="white">
            <use xlink:href="#path-13"></use>
        </mask>
        <circle id="path-15" cx="8" cy="4" r="4"></circle>
        <mask id="mask-16" maskContentUnits="userSpaceOnUse" maskUnits="objectBoundingBox" x="-2" y="-2" width="12" height="12">
            <rect x="2" y="-2" width="12" height="12" fill="white"></rect>
            <use xlink:href="#path-15" fill="black"></use>
        </mask>
        <circle id="path-17" cx="8" cy="4" r="4"></circle>
        <mask id="mask-18" maskContentUnits="userSpaceOnUse" maskUnits="objectBoundingBox" x="-2" y="-2" width="12" height="12">
            <rect x="2" y="-2" width="12" height="12" fill="white"></rect>
            <use xlink:href="#path-17" fill="black"></use>
        </mask>
        <circle id="path-19" cx="8" cy="4" r="4"></circle>
        <mask id="mask-20" maskContentUnits="userSpaceOnUse" maskUnits="objectBoundingBox" x="-2" y="-2" width="12" height="12">
            <rect x="2" y="-2" width="12" height="12" fill="white"></rect>
            <use xlink:href="#path-19" fill="black"></use>
        </mask>
    </defs>
    <g id="Page-2" stroke="none" stroke-width="1" fill="none" fill-rule="evenodd">
        <g id="Artboard">
            <path d="" id="Path-4-Copy-2" stroke="#979797"></path>
            <g id="Group-8" transform="translate(17.000000, 74.000000)">
                <g id="Group-2" stroke="#C8D2D2">
                    <circle id="Oval-3-Copy-10" opacity="0.100000001" cx="91" cy="91" r="43"></circle>
                    <circle id="Oval-3-Copy-11" opacity="0.200000003" cx="91" cy="91" r="66"></circle>
                    <ellipse id="Oval-3-Copy-12" opacity="0.400000006" cx="91" cy="91" rx="91" ry="91"></ellipse>
                </g>
                <g id="Group-11" transform="translate(113.000000, 90.000000)" fill="#AEB8B8">
                    <circle id="Oval-3" cx="1" cy="1" r="1"></circle>
                    <circle id="Oval-3-Copy" cx="5" cy="1" r="1"></circle>
                    <circle id="Oval-3-Copy-2" cx="9" cy="1" r="1"></circle>
                    <circle id="Oval-3-Copy-3" cx="13" cy="1" r="1"></circle>
                    <circle id="Oval-3-Copy-4" cx="17" cy="1" r="1"></circle>
                    <circle id="Oval-3-Copy-5" cx="21" cy="1" r="1"></circle>
                    <circle id="Oval-3-Copy-6" cx="25" cy="1" r="1"></circle>
                    <circle id="Oval-3-Copy-13" cx="29" cy="1" r="1"></circle>
                    <circle id="Oval-3-Copy-14" cx="33" cy="1" r="1"></circle>
                    <circle id="Oval-3-Copy-15" cx="37" cy="1" r="1"></circle>
                    <circle id="Oval-3-Copy-16" cx="41" cy="1" r="1"></circle>
                    <circle id="Oval-3-Copy-17" cx="45" cy="1" r="1"></circle>
                    <circle id="Oval-3-Copy-18" cx="49" cy="1" r="1"></circle>
                    <circle id="Oval-3-Copy-19" cx="53" cy="1" r="1"></circle>
                    <circle id="Oval-3-Copy-20" cx="57" cy="1" r="1"></circle>
                </g>
                <path d="M90.9781145,93.4599106 C89.6435185,93.4599106 88.5627104,92.4067178 88.5627104,91.1062215 C88.5627104,89.8061354 89.6435185,88.7529426 90.9781145,88.7529426 C92.3127104,88.7529426 93.3930976,89.8061354 93.3930976,91.1062215 C93.3930976,92.4067178 92.3127104,93.4599106 90.9781145,93.4599106 M100.480219,93.4135668 L97.0037879,93.4135668 L97.0037879,91.9055489 L100.436869,91.9055489 C100.723485,91.9055489 100.95665,91.6779313 100.95665,91.3990485 L100.95665,90.8138047 C100.95665,90.5345117 100.723485,90.3073043 100.436869,90.3073043 L97.0037879,90.3073043 L97.0037879,88.6717385 L100.436869,88.6717385 C100.723485,88.6717385 100.95665,88.444531 100.95665,88.1652381 L100.95665,87.5799943 C100.95665,87.3011114 100.723485,87.0734938 100.436869,87.0734938 L97.0037879,87.0734938 L97.0037879,85.0643071 L95.1603535,85.0643071 L95.1603535,81.5060903 C95.1603535,81.2272075 94.9267677,81 94.6401515,81 L94.040404,81 C93.753367,81 93.5206229,81.2272075 93.5206229,81.5060903 L93.5206229,85.0643071 L91.7979798,85.0643071 L91.7979798,81.5491531 C91.7979798,81.26945 91.5652357,81.0422425 91.2786195,81.0422425 L90.6780303,81.0422425 C90.3909933,81.0422425 90.1582492,81.26945 90.1582492,81.5491531 L90.1582492,85.0643071 L88.4793771,85.0643071 L88.4793771,81.5491531 C88.4793771,81.26945 88.2462121,81.0422425 87.959596,81.0422425 L87.3598485,81.0422425 C87.0728114,81.0422425 86.8392256,81.26945 86.8392256,81.5491531 L86.8392256,85.0643071 L84.9524411,85.0643071 L84.9524411,86.9459459 L81.5631313,86.9459459 C81.2760943,86.9459459 81.0433502,87.1731534 81.0433502,87.4524464 L81.0433502,88.0376902 C81.0433502,88.316573 81.2760943,88.5441906 81.5631313,88.5441906 L84.9524411,88.5441906 L84.9524411,90.3073043 L81.5193603,90.3073043 C81.2327441,90.3073043 81,90.5345117 81,90.8138047 L81,91.3990485 C81,91.6779313 81.2327441,91.9055489 81.5193603,91.9055489 L84.9524411,91.9055489 L84.9524411,93.5411147 L81.5193603,93.5411147 C81.2327441,93.5411147 81,93.7683222 81,94.0476151 L81,94.632859 C81,94.9117418 81.2327441,95.1393594 81.5193603,95.1393594 L84.9524411,95.1393594 L84.9524411,96.9779354 L86.8392256,96.9779354 L86.8392256,100.49391 C86.8392256,100.523028 86.851431,100.548456 86.8564815,100.576344 L87.2739899,100.983185 C87.3030303,100.988106 87.3295455,101 87.3598485,101 L87.959596,101 C88.2462121,101 88.4793771,100.773203 88.4793771,100.49391 L88.4793771,96.9779354 L90.1582492,96.9779354 L90.1582492,100.49391 C90.1582492,100.773203 90.3909933,101 90.6780303,101 L91.2786195,101 C91.5652357,101 91.7979798,100.773203 91.7979798,100.49391 L91.7979798,96.9779354 L93.5206229,96.9779354 L93.5206229,100.451667 C93.5206229,100.73096 93.753367,100.957757 94.040404,100.957757 L94.6401515,100.957757 C94.9267677,100.957757 95.1603535,100.73096 95.1603535,100.451667 L95.1603535,96.9779354 L97.0037879,96.9779354 L97.0037879,95.0114014 L100.480219,95.0114014 C100.767256,95.0114014 101,94.7841939 101,94.504901 L101,93.9196571 C101,93.6407743 100.767256,93.4135668 100.480219,93.4135668" id="Page-1-Copy-6" fill="#152935"></path>
                <g id="Oval-5">
                    <use stroke="#2EA4B2" stroke-width="2" fill="#F9F9FB" fill-rule="evenodd" xlink:href="#path-1"></use>
                    <use stroke="#F9F9FB" mask="url(#mask-2)" stroke-width="4" xlink:href="#path-1"></use>
                </g>
                <circle id="Oval-6" fill="#2EA4B2" cx="108" cy="91" r="1"></circle>
            </g>
            <text id="Simple-Interface" font-family="HelveticaNeue-Medium, Helvetica Neue" font-size="12" font-weight="400" line-spacing="14" fill="#152935">
                <tspan x="243" y="225">Simple Interface</tspan>
            </text>
            <g id="Group-6" transform="translate(189.000000, 124.000000)">
                <path d="M88.9781145,42.4599106 C87.6435185,42.4599106 86.5627104,41.4067178 86.5627104,40.1062215 C86.5627104,38.8061354 87.6435185,37.7529426 88.9781145,37.7529426 C90.3127104,37.7529426 91.3930976,38.8061354 91.3930976,40.1062215 C91.3930976,41.4067178 90.3127104,42.4599106 88.9781145,42.4599106 M98.4802189,42.4135668 L95.0037879,42.4135668 L95.0037879,40.9055489 L98.4368687,40.9055489 C98.7234848,40.9055489 98.9566498,40.6779313 98.9566498,40.3990485 L98.9566498,39.8138047 C98.9566498,39.5345117 98.7234848,39.3073043 98.4368687,39.3073043 L95.0037879,39.3073043 L95.0037879,37.6717385 L98.4368687,37.6717385 C98.7234848,37.6717385 98.9566498,37.444531 98.9566498,37.1652381 L98.9566498,36.5799943 C98.9566498,36.3011114 98.7234848,36.0734938 98.4368687,36.0734938 L95.0037879,36.0734938 L95.0037879,34.0643071 L93.1603535,34.0643071 L93.1603535,30.5060903 C93.1603535,30.2272075 92.9267677,30 92.6401515,30 L92.040404,30 C91.753367,30 91.5206229,30.2272075 91.5206229,30.5060903 L91.5206229,34.0643071 L89.7979798,34.0643071 L89.7979798,30.5491531 C89.7979798,30.26945 89.5652357,30.0422425 89.2786195,30.0422425 L88.6780303,30.0422425 C88.3909933,30.0422425 88.1582492,30.26945 88.1582492,30.5491531 L88.1582492,34.0643071 L86.4793771,34.0643071 L86.4793771,30.5491531 C86.4793771,30.26945 86.2462121,30.0422425 85.959596,30.0422425 L85.3598485,30.0422425 C85.0728114,30.0422425 84.8392256,30.26945 84.8392256,30.5491531 L84.8392256,34.0643071 L82.9524411,34.0643071 L82.9524411,35.9459459 L79.5631313,35.9459459 C79.2760943,35.9459459 79.0433502,36.1731534 79.0433502,36.4524464 L79.0433502,37.0376902 C79.0433502,37.316573 79.2760943,37.5441906 79.5631313,37.5441906 L82.9524411,37.5441906 L82.9524411,39.3073043 L79.5193603,39.3073043 C79.2327441,39.3073043 79,39.5345117 79,39.8138047 L79,40.3990485 C79,40.6779313 79.2327441,40.9055489 79.5193603,40.9055489 L82.9524411,40.9055489 L82.9524411,42.5411147 L79.5193603,42.5411147 C79.2327441,42.5411147 79,42.7683222 79,43.0476151 L79,43.632859 C79,43.9117418 79.2327441,44.1393594 79.5193603,44.1393594 L82.9524411,44.1393594 L82.9524411,45.9779354 L84.8392256,45.9779354 L84.8392256,49.4939097 C84.8392256,49.5230283 84.851431,49.5484559 84.8564815,49.5763442 L85.2739899,49.983185 C85.3030303,49.9881065 85.3295455,50 85.3598485,50 L85.959596,50 C86.2462121,50 86.4793771,49.7732026 86.4793771,49.4939097 L86.4793771,45.9779354 L88.1582492,45.9779354 L88.1582492,49.4939097 C88.1582492,49.7732026 88.3909933,50 88.6780303,50 L89.2786195,50 C89.5652357,50 89.7979798,49.7732026 89.7979798,49.4939097 L89.7979798,45.9779354 L91.5206229,45.9779354 L91.5206229,49.4516671 C91.5206229,49.7309601 91.753367,49.9577575 92.040404,49.9577575 L92.6401515,49.9577575 C92.9267677,49.9577575 93.1603535,49.7309601 93.1603535,49.4516671 L93.1603535,45.9779354 L95.0037879,45.9779354 L95.0037879,44.0114014 L98.4802189,44.0114014 C98.7672559,44.0114014 99,43.7841939 99,43.504901 L99,42.9196571 C99,42.6407743 98.7672559,42.4135668 98.4802189,42.4135668" id="Page-1-Copy-7" fill="#152935"></path>
                <g id="Group-14">
                    <g id="Rectangle-4">
                        <use fill="black" fill-opacity="1" filter="url(#filter-4)" xlink:href="#path-3"></use>
                        <use fill="#2EA4B2" fill-rule="evenodd" xlink:href="#path-3"></use>
                    </g>
                </g>
                <path d="M98.9781145,42.4599106 C97.6435185,42.4599106 96.5627104,41.4067178 96.5627104,40.1062215 C96.5627104,38.8061354 97.6435185,37.7529426 98.9781145,37.7529426 C100.31271,37.7529426 101.393098,38.8061354 101.393098,40.1062215 C101.393098,41.4067178 100.31271,42.4599106 98.9781145,42.4599106 M108.480219,42.4135668 L105.003788,42.4135668 L105.003788,40.9055489 L108.436869,40.9055489 C108.723485,40.9055489 108.95665,40.6779313 108.95665,40.3990485 L108.95665,39.8138047 C108.95665,39.5345117 108.723485,39.3073043 108.436869,39.3073043 L105.003788,39.3073043 L105.003788,37.6717385 L108.436869,37.6717385 C108.723485,37.6717385 108.95665,37.444531 108.95665,37.1652381 L108.95665,36.5799943 C108.95665,36.3011114 108.723485,36.0734938 108.436869,36.0734938 L105.003788,36.0734938 L105.003788,34.0643071 L103.160354,34.0643071 L103.160354,30.5060903 C103.160354,30.2272075 102.926768,30 102.640152,30 L102.040404,30 C101.753367,30 101.520623,30.2272075 101.520623,30.5060903 L101.520623,34.0643071 L99.7979798,34.0643071 L99.7979798,30.5491531 C99.7979798,30.26945 99.5652357,30.0422425 99.2786195,30.0422425 L98.6780303,30.0422425 C98.3909933,30.0422425 98.1582492,30.26945 98.1582492,30.5491531 L98.1582492,34.0643071 L96.4793771,34.0643071 L96.4793771,30.5491531 C96.4793771,30.26945 96.2462121,30.0422425 95.959596,30.0422425 L95.3598485,30.0422425 C95.0728114,30.0422425 94.8392256,30.26945 94.8392256,30.5491531 L94.8392256,34.0643071 L92.9524411,34.0643071 L92.9524411,35.9459459 L89.5631313,35.9459459 C89.2760943,35.9459459 89.0433502,36.1731534 89.0433502,36.4524464 L89.0433502,37.0376902 C89.0433502,37.316573 89.2760943,37.5441906 89.5631313,37.5441906 L92.9524411,37.5441906 L92.9524411,39.3073043 L89.5193603,39.3073043 C89.2327441,39.3073043 89,39.5345117 89,39.8138047 L89,40.3990485 C89,40.6779313 89.2327441,40.9055489 89.5193603,40.9055489 L92.9524411,40.9055489 L92.9524411,42.5411147 L89.5193603,42.5411147 C89.2327441,42.5411147 89,42.7683222 89,43.0476151 L89,43.632859 C89,43.9117418 89.2327441,44.1393594 89.5193603,44.1393594 L92.9524411,44.1393594 L92.9524411,45.9779354 L94.8392256,45.9779354 L94.8392256,49.4939097 C94.8392256,49.5230283 94.851431,49.5484559 94.8564815,49.5763442 L95.2739899,49.983185 C95.3030303,49.9881065 95.3295455,50 95.3598485,50 L95.959596,50 C96.2462121,50 96.4793771,49.7732026 96.4793771,49.4939097 L96.4793771,45.9779354 L98.1582492,45.9779354 L98.1582492,49.4939097 C98.1582492,49.7732026 98.3909933,50 98.6780303,50 L99.2786195,50 C99.5652357,50 99.7979798,49.7732026 99.7979798,49.4939097 L99.7979798,45.9779354 L101.520623,45.9779354 L101.520623,49.4516671 C101.520623,49.7309601 101.753367,49.9577575 102.040404,49.9577575 L102.640152,49.9577575 C102.926768,49.9577575 103.160354,49.7309601 103.160354,49.4516671 L103.160354,45.9779354 L105.003788,45.9779354 L105.003788,44.0114014 L108.480219,44.0114014 C108.767256,44.0114014 109,43.7841939 109,43.504901 L109,42.9196571 C109,42.6407743 108.767256,42.4135668 108.480219,42.4135668" id="Page-1-Copy-8" fill="#0C373C"></path>
            </g>
            <g id="Group-7" transform="translate(384.000000, 70.000000)">
                <g id="Group-4">
                    <g id="Group-11-Copy" transform="translate(1.000000, 92.000000)">
                        <circle id="Oval-3" fill="#AEB8B8" cx="1" cy="4" r="1"></circle>
                        <circle id="Oval-3-Copy" fill="#AEB8B8" cx="5" cy="4" r="1"></circle>
                        <circle id="Oval-3-Copy-2" fill="#AEB8B8" cx="9" cy="4" r="1"></circle>
                        <circle id="Oval-3-Copy-3" fill="#AEB8B8" cx="13" cy="4" r="1"></circle>
                        <circle id="Oval-3-Copy-4" fill="#AEB8B8" cx="17" cy="4" r="1"></circle>
                        <circle id="Oval-3-Copy-5" fill="#AEB8B8" cx="21" cy="4" r="1"></circle>
                        <circle id="Oval-3-Copy-6" fill="#AEB8B8" cx="25" cy="4" r="1"></circle>
                        <circle id="Oval-3-Copy-13" fill="#AEB8B8" cx="29" cy="4" r="1"></circle>
                        <circle id="Oval-3-Copy-14" fill="#AEB8B8" cx="33" cy="4" r="1"></circle>
                        <circle id="Oval-3-Copy-15" fill="#AEB8B8" cx="37" cy="4" r="1"></circle>
                        <circle id="Oval-3-Copy-16" fill="#AEB8B8" cx="41" cy="4" r="1"></circle>
                        <circle id="Oval-3-Copy-17" fill="#AEB8B8" cx="45" cy="4" r="1"></circle>
                        <circle id="Oval-3-Copy-18" fill="#AEB8B8" cx="49" cy="4" r="1"></circle>
                        <circle id="Oval-3-Copy-19" fill="#AEB8B8" cx="53" cy="4" r="1"></circle>
                        <g id="Group" transform="translate(53.000000, 0.000000)"></g>
                    </g>
                    <g id="Group-11-Copy-3" transform="translate(26.248711, 53.000000) rotate(-30.000000) translate(-26.248711, -53.000000) translate(-2.751289, 52.000000)">
                        <circle id="Oval-3" fill="#AEB8B8" cx="1" cy="1" r="1"></circle>
                        <circle id="Oval-3-Copy" fill="#AEB8B8" cx="5" cy="1" r="1"></circle>
                        <circle id="Oval-3-Copy-2" fill="#AEB8B8" cx="9" cy="1" r="1"></circle>
                        <circle id="Oval-3-Copy-3" fill="#AEB8B8" cx="13" cy="1" r="1"></circle>
                        <circle id="Oval-3-Copy-4" fill="#AEB8B8" cx="17" cy="1" r="1"></circle>
                        <circle id="Oval-3-Copy-5" fill="#AEB8B8" cx="21" cy="1" r="1"></circle>
                        <circle id="Oval-3-Copy-6" fill="#AEB8B8" cx="25" cy="1" r="1"></circle>
                        <circle id="Oval-3-Copy-13" fill="#AEB8B8" cx="29" cy="1" r="1"></circle>
                        <circle id="Oval-3-Copy-14" fill="#AEB8B8" cx="33" cy="1" r="1"></circle>
                        <circle id="Oval-3-Copy-15" fill="#AEB8B8" cx="37" cy="1" r="1"></circle>
                        <circle id="Oval-3-Copy-16" fill="#AEB8B8" cx="41" cy="1" r="1"></circle>
                        <circle id="Oval-3-Copy-17" fill="#AEB8B8" cx="45" cy="1" r="1"></circle>
                        <circle id="Oval-3-Copy-18" fill="#AEB8B8" cx="49" cy="1" r="1"></circle>
                        <circle id="Oval-3-Copy-19" fill="#AEB8B8" cx="53" cy="1" r="1"></circle>
                        <circle id="Oval-3-Copy-20" fill="#2EA4B2" cx="57" cy="1" r="1"></circle>
                    </g>
                    <g id="Group-11-Copy-2" transform="translate(26.614737, 138.366025) rotate(-330.000000) translate(-26.614737, -138.366025) translate(-2.385263, 137.366025)">
                        <circle id="Oval-3" fill="#AEB8B8" cx="1" cy="1" r="1"></circle>
                        <circle id="Oval-3-Copy" fill="#AEB8B8" cx="5" cy="1" r="1"></circle>
                        <circle id="Oval-3-Copy-2" fill="#AEB8B8" cx="9" cy="1" r="1"></circle>
                        <circle id="Oval-3-Copy-3" fill="#AEB8B8" cx="13" cy="1" r="1"></circle>
                        <circle id="Oval-3-Copy-4" fill="#AEB8B8" cx="17" cy="1" r="1"></circle>
                        <circle id="Oval-3-Copy-5" fill="#AEB8B8" cx="21" cy="1" r="1"></circle>
                        <circle id="Oval-3-Copy-6" fill="#AEB8B8" cx="25" cy="1" r="1"></circle>
                        <circle id="Oval-3-Copy-13" fill="#AEB8B8" cx="29" cy="1" r="1"></circle>
                        <circle id="Oval-3-Copy-14" fill="#AEB8B8" cx="33" cy="1" r="1"></circle>
                        <circle id="Oval-3-Copy-15" fill="#AEB8B8" cx="37" cy="1" r="1"></circle>
                        <circle id="Oval-3-Copy-16" fill="#AEB8B8" cx="41" cy="1" r="1"></circle>
                        <circle id="Oval-3-Copy-17" fill="#AEB8B8" cx="45" cy="1" r="1"></circle>
                        <circle id="Oval-3-Copy-18" fill="#AEB8B8" cx="49" cy="1" r="1"></circle>
                        <circle id="Oval-3-Copy-19" fill="#AEB8B8" cx="53" cy="1" r="1"></circle>
                        <circle id="Oval-3-Copy-20" fill="#2EA4B2" cx="57" cy="1" r="1"></circle>
                    </g>
                    <g id="Group" transform="translate(52.629165, 153.714102) rotate(-330.000000) translate(-52.629165, -153.714102) translate(46.129165, 149.714102)"></g>
                    <g id="Group-Copy" transform="translate(52.629165, 37.714102) scale(1, -1) rotate(-330.000000) translate(-52.629165, -37.714102) translate(46.129165, 33.714102)"></g>
                    <g id="Group-12-Copy-11" transform="translate(67.000000, 120.000000)">
                        <use id="Rectangle-5-Copy-5" stroke="#DFE9E9" mask="url(#mask-6)" stroke-width="2" fill="#ECF0F2" transform="translate(15.000000, 15.000000) scale(1, -1) translate(-15.000000, -15.000000) " xlink:href="#path-5"></use>
                        <g id="Group-9" transform="translate(10.000000, 7.000000)" fill="#152935">
                            <path d="M9.534,7.596 L8.827,6.889 C8.358,7.358 7.8125,7.7275 7.206,7.9995 L6.046,4.664 C6.5835,4.3055 6.938,3.6945 6.938,3 C6.938,2.0695 6.299,1.294 5.438,1.071 L5.438,0 L4.438,0 L4.438,1.071 C3.577,1.294 2.938,2.0695 2.938,3 C2.938,3.6945 3.2925,4.305 3.83,4.664 L0.466,14.3355 L1.4105,14.664 L3.284,9.2775 C3.825,9.419 4.3815,9.4915 4.9385,9.4915 C5.4955,9.4915 6.052,9.419 6.593,9.2775 L8.4665,14.664 L9.411,14.3355 L7.536,8.944 C8.284,8.6195 8.958,8.1725 9.534,7.596 L9.534,7.596 Z M4.938,2.5 C5.214,2.5 5.438,2.724 5.438,3 C5.438,3.276 5.214,3.5 4.938,3.5 C4.662,3.5 4.438,3.276 4.438,3 C4.438,2.724 4.662,2.5 4.938,2.5 L4.938,2.5 Z M3.6135,8.33 L4.7775,4.984 C4.8315,4.9885 4.883,5 4.938,5 C4.993,5 5.0445,4.9885 5.0985,4.984 L6.2625,8.33 C5.3945,8.5445 4.4815,8.5445 3.6135,8.33 L3.6135,8.33 Z" id="Shape"></path>
                        </g>
                    </g>
                    <g id="Group-11-Copy-6" transform="translate(67.000000, 0.000000)">
                        <use id="Rectangle-5-Copy-5" stroke="#DFE9E9" mask="url(#mask-8)" stroke-width="2" fill="#ECF0F2" transform="translate(15.000000, 15.000000) scale(1, -1) translate(-15.000000, -15.000000) " xlink:href="#path-7"></use>
                        <g id="Group-10" transform="translate(9.000000, 8.000000)" fill="#152935">
                            <path d="M6,9.33333333 C8.531375,9.33333333 10.5833333,7.24406667 10.5833333,4.66666667 C10.5833333,2.08926667 8.531375,0 6,0 C3.468625,0 1.41666667,2.08926667 1.41666667,4.66666667 C1.41666667,7.24406667 3.468625,9.33333333 6,9.33333333 L6,9.33333333 Z M6,0.933333333 C8.02170833,0.933333333 9.66666667,2.6082 9.66666667,4.66666667 C9.66666667,6.72513333 8.02170833,8.4 6,8.4 C3.97829167,8.4 2.33333333,6.72513333 2.33333333,4.66666667 C2.33333333,2.6082 3.97829167,0.933333333 6,0.933333333 L6,0.933333333 Z" id="Shape"></path>
                            <path d="M9.66666667,10.2666667 L2.33333333,10.2666667 C1.320875,10.2666667 0.5,11.1024667 0.5,12.1333333 L0.5,14 L11.5,14 L11.5,12.1333333 C11.5,11.1024667 10.679125,10.2666667 9.66666667,10.2666667 L9.66666667,10.2666667 Z" id="Shape"></path>
                        </g>
                    </g>
                    <g id="Group-11-Copy-6" transform="translate(67.000000, 80.000000)">
                        <use id="Rectangle-5-Copy-5" stroke="#DFE9E9" mask="url(#mask-10)" stroke-width="2" fill="#ECF0F2" transform="translate(15.000000, 15.000000) scale(1, -1) translate(-15.000000, -15.000000) " xlink:href="#path-9"></use>
                        <g id="Group-10" transform="translate(9.000000, 8.000000)" fill="#152935">
                            <path d="M6,9.33333333 C8.531375,9.33333333 10.5833333,7.24406667 10.5833333,4.66666667 C10.5833333,2.08926667 8.531375,0 6,0 C3.468625,0 1.41666667,2.08926667 1.41666667,4.66666667 C1.41666667,7.24406667 3.468625,9.33333333 6,9.33333333 L6,9.33333333 Z M6,0.933333333 C8.02170833,0.933333333 9.66666667,2.6082 9.66666667,4.66666667 C9.66666667,6.72513333 8.02170833,8.4 6,8.4 C3.97829167,8.4 2.33333333,6.72513333 2.33333333,4.66666667 C2.33333333,2.6082 3.97829167,0.933333333 6,0.933333333 L6,0.933333333 Z" id="Shape"></path>
                            <path d="M9.66666667,10.2666667 L2.33333333,10.2666667 C1.320875,10.2666667 0.5,11.1024667 0.5,12.1333333 L0.5,14 L11.5,14 L11.5,12.1333333 C11.5,11.1024667 10.679125,10.2666667 9.66666667,10.2666667 L9.66666667,10.2666667 Z" id="Shape"></path>
                        </g>
                    </g>
                    <g id="Group-11-Copy-6" transform="translate(67.000000, 160.000000)">
                        <use id="Rectangle-5-Copy-5" stroke="#DFE9E9" mask="url(#mask-12)" stroke-width="2" fill="#ECF0F2" transform="translate(15.000000, 15.000000) scale(1, -1) translate(-15.000000, -15.000000) " xlink:href="#path-11"></use>
                        <g id="Group-13" transform="translate(9.000000, 8.000000)" fill="#152935">
                            <path d="M6,9 C8.48535,9 10.5,6.98535 10.5,4.5 C10.5,2.01465 8.48535,0 6,0 C3.51465,0 1.5,2.01465 1.5,4.5 C1.5,6.98535 3.51465,9 6,9 L6,9 Z M6,0.9 C7.98495,0.9 9.6,2.51505 9.6,4.5 C9.6,6.48495 7.98495,8.1 6,8.1 C4.01505,8.1 2.4,6.48495 2.4,4.5 C2.4,2.51505 4.01505,0.9 6,0.9 L6,0.9 Z" id="Shape"></path>
                            <path d="M9.66666667,10 L2.33333333,10 C1.320875,10 0.5,10.8955 0.5,12 L0.5,14 L11.5,14 L11.5,12 C11.5,10.8955 10.679125,10 9.66666667,10 L9.66666667,10 Z" id="Shape"></path>
                        </g>
                    </g>
                    <g id="Group-12-Copy-8" transform="translate(67.000000, 40.000000)">
                        <use id="Rectangle-5-Copy-5" stroke="#DFE9E9" mask="url(#mask-14)" stroke-width="2" fill="#ECF0F2" transform="translate(15.000000, 15.000000) scale(1, -1) translate(-15.000000, -15.000000) " xlink:href="#path-13"></use>
                        <g id="Group-9" transform="translate(10.000000, 7.000000)" fill="#152935">
                            <path d="M9.534,7.596 L8.827,6.889 C8.358,7.358 7.8125,7.7275 7.206,7.9995 L6.046,4.664 C6.5835,4.3055 6.938,3.6945 6.938,3 C6.938,2.0695 6.299,1.294 5.438,1.071 L5.438,0 L4.438,0 L4.438,1.071 C3.577,1.294 2.938,2.0695 2.938,3 C2.938,3.6945 3.2925,4.305 3.83,4.664 L0.466,14.3355 L1.4105,14.664 L3.284,9.2775 C3.825,9.419 4.3815,9.4915 4.9385,9.4915 C5.4955,9.4915 6.052,9.419 6.593,9.2775 L8.4665,14.664 L9.411,14.3355 L7.536,8.944 C8.284,8.6195 8.958,8.1725 9.534,7.596 L9.534,7.596 Z M4.938,2.5 C5.214,2.5 5.438,2.724 5.438,3 C5.438,3.276 5.214,3.5 4.938,3.5 C4.662,3.5 4.438,3.276 4.438,3 C4.438,2.724 4.662,2.5 4.938,2.5 L4.938,2.5 Z M3.6135,8.33 L4.7775,4.984 C4.8315,4.9885 4.883,5 4.938,5 C4.993,5 5.0445,4.9885 5.0985,4.984 L6.2625,8.33 C5.3945,8.5445 4.4815,8.5445 3.6135,8.33 L3.6135,8.33 Z" id="Shape"></path>
                        </g>
                    </g>
                </g>
                <g id="Group-5" transform="translate(49.000000, 96.000000) rotate(-180.000000) translate(-49.000000, -96.000000) translate(43.000000, 92.000000)">
                    <g id="Oval-5">
                        <use stroke="#2EA4B2" stroke-width="2" fill="#F9F9FB" fill-rule="evenodd" xlink:href="#path-15"></use>
                        <use stroke="#FBFCFC" mask="url(#mask-16)" stroke-width="4" xlink:href="#path-15"></use>
                    </g>
                    <circle id="Oval-6" fill="#2EA4B2" cx="1" cy="4" r="1"></circle>
                </g>
                <g id="Group-5-Copy" transform="translate(49.196152, 39.464102) rotate(-210.000000) translate(-49.196152, -39.464102) translate(43.196152, 35.464102)">
                    <g id="Oval-5">
                        <use stroke="#2EA4B2" stroke-width="2" fill="#F9F9FB" fill-rule="evenodd" xlink:href="#path-17"></use>
                        <use stroke="#FBFCFC" mask="url(#mask-18)" stroke-width="4" xlink:href="#path-17"></use>
                    </g>
                    <circle id="Oval-6" fill="#2EA4B2" cx="1" cy="4" r="1"></circle>
                </g>
                <g id="Group-5-Copy-2" transform="translate(49.196152, 151.535898) rotate(-150.000000) translate(-49.196152, -151.535898) translate(43.196152, 147.535898)">
                    <g id="Oval-5">
                        <use stroke="#2EA4B2" stroke-width="2" fill="#F9F9FB" fill-rule="evenodd" xlink:href="#path-19"></use>
                        <use stroke="#FBFCFC" mask="url(#mask-20)" stroke-width="4" xlink:href="#path-19"></use>
                    </g>
                    <circle id="Oval-6" fill="#2EA4B2" cx="1" cy="4" r="1"></circle>
                </g>
            </g>
            <text id="Device" font-family="HelveticaNeue-Medium, Helvetica Neue" font-size="12" font-weight="400" line-spacing="14" fill="#152935">
                <tspan x="89" y="298">Device</tspan>
            </text>
            <text id="Applications" font-family="HelveticaNeue-Medium, Helvetica Neue" font-size="12" font-weight="400" line-spacing="14" fill="#152935">
                <tspan x="433" y="298">Applications</tspan>
            </text>
        </g>
    </g>
</svg>