<?xml version="1.0" encoding="UTF-8" standalone="no"?>
<svg width="11px" height="16px" viewBox="0 0 11 16" version="1.1" xmlns="http://www.w3.org/2000/svg" xmlns:xlink="http://www.w3.org/1999/xlink">
    <!-- Generator: Sketch 3.6.1 (26313) - http://www.bohemiancoding.com/sketch -->
    <title>Group 29</title>
    <desc>Created with Sketch.</desc>
    <defs></defs>
    <g id="Page-1" stroke="none" stroke-width="1" fill="none" fill-rule="evenodd">
        <g id="Group-29" fill="#485151">
            <path d="M3.3,0 L7.7,0 L7.7,1.14285714 L3.3,1.14285714 L3.3,0 Z" id="Fill-1"></path>
            <path d="M0,1.71428571 L0,4.57142857 L0.55,4.57142857 L0.55,16 L10.45,16 L10.45,4.57142857 L11,4.57142857 L11,1.71428571 L0,1.71428571 L0,1.71428571 Z M9.35,14.8571429 L1.65,14.8571429 L1.65,5.71428571 L9.35,5.71428571 L9.35,14.8571429 L9.35,14.8571429 Z" id="Fill-3"></path>
            <path d="M2.75,6.85714286 L3.3,6.85714286 L3.3,13.7142857 L2.75,13.7142857 L2.75,6.85714286 Z" id="Fill-4"></path>
            <path d="M4.4,6.85714286 L4.95,6.85714286 L4.95,13.7142857 L4.4,13.7142857 L4.4,6.85714286 Z" id="Fill-5"></path>
            <path d="M6.05,6.85714286 L6.6,6.85714286 L6.6,13.7142857 L6.05,13.7142857 L6.05,6.85714286 Z" id="Fill-6"></path>
            <path d="M7.7,6.85714286 L8.25,6.85714286 L8.25,13.7142857 L7.7,13.7142857 L7.7,6.85714286 Z" id="Fill-7"></path>
        </g>
    </g>
</svg>