<?xml version="1.0" encoding="UTF-8" standalone="no"?>
<svg width="15px" height="15px" viewBox="0 0 15 15" version="1.1" xmlns="http://www.w3.org/2000/svg" xmlns:xlink="http://www.w3.org/1999/xlink">
    <!-- Generator: Sketch 3.6.1 (26313) - http://www.bohemiancoding.com/sketch -->
    <title>Group 32</title>
    <desc>Created with Sketch.</desc>
    <defs></defs>
    <g id="Page-1" stroke="none" stroke-width="1" fill="none" fill-rule="evenodd">
        <g id="Group-32" fill="#485151">
            <g id="Group-28">
                <path d="M15,0 L0,0 L0,2 L6,8 L6,15 L9,12 L9,10.3105 C9.3665,10.7295 9.899,11 10.5,11 C11.605,11 12.5,10.105 12.5,9 C12.5,7.895 11.605,7 10.5,7 C10.2885,7 10.089,7.0415 9.8975,7.1025 L15,2 L15,0 L15,0 Z M11.5,9 C11.5,9.5515 11.051,10 10.5,10 C9.9485,10 9.5,9.5515 9.5,9 C9.5,8.4485 9.9485,8 10.5,8 C11.051,8 11.5,8.4485 11.5,9 L11.5,9 Z M8.293,7.293 L8,7.5855 L8,8 L8,11.5855 L7,12.5855 L7,8 L7,7.5855 L6.707,7.293 L1.4145,2 L13.586,2 L8.293,7.293 L8.293,7.293 Z" id="Page-1-Copy"></path>
            </g>
        </g>
    </g>
</svg>