<?xml version="1.0" encoding="UTF-8" standalone="no"?>
<svg width="10px" height="13px" viewBox="0 0 10 13" version="1.1" xmlns="http://www.w3.org/2000/svg" xmlns:xlink="http://www.w3.org/1999/xlink">
    <!-- Generator: Sketch 3.6.1 (26313) - http://www.bohemiancoding.com/sketch -->
    <title>Group 25</title>
    <desc>Created with Sketch.</desc>
    <defs></defs>
    <g id="Page-1" stroke="none" stroke-width="1" fill="none" fill-rule="evenodd">
        <g id="Group-25" fill="#485151">
            <path d="M5.2173913,12.1333333 C2.82,12.1333333 0.869565217,10.1894 0.869565217,7.8 C0.869565217,5.4106 2.82,3.46666667 5.2173913,3.46666667 L8.08086957,3.46666667 L6.21434783,5.32696667 L6.82913043,5.9397 L9.74521739,3.03333333 L6.82913043,0.126966667 L6.21434783,0.7397 L8.08086957,2.6 L5.2173913,2.6 C2.34043478,2.6 0,4.93263333 0,7.8 C0,10.6673667 2.34043478,13 5.2173913,13 C6.61086957,13 7.92086957,12.4592 8.90652174,11.4768333 L8.29173913,10.8641 C7.47043478,11.6826667 6.37869565,12.1333333 5.2173913,12.1333333 L5.2173913,12.1333333 Z" id="Shape"></path>
        </g>
    </g>
</svg>