<?xml version="1.0" encoding="utf-8"?>
<!-- Generator: Adobe Illustrator 19.0.0, SVG Export Plug-In . SVG Version: 6.00 Build 0)  -->
<svg version="1.1" id="Layer_1" xmlns="http://www.w3.org/2000/svg" xmlns:xlink="http://www.w3.org/1999/xlink" x="0px" y="0px"
	 viewBox="0 0 39.3 39.3" style="enable-background:new 0 0 39.3 39.3;" xml:space="preserve">
<style type="text/css">
	.st0{fill:#162A36;}
</style>
<path class="st0" d="M19.6,0C8.8,0,0,8.8,0,19.6s8.8,19.6,19.6,19.6s19.6-8.8,19.6-19.6S30.5,0,19.6,0z M26.6,25.6l-5.9-5.9
	L32.1,8.2C32.8,14.8,30.9,21,26.6,25.6z M12.7,13.7l5.9,5.9L7.2,31.1C6.5,24.5,8.4,18.3,12.7,13.7z M13.7,12.7
	c3.9-3.6,9.1-5.6,14.6-5.6c0.9,0,1.8,0.1,2.7,0.2L19.6,18.7L13.7,12.7z M19.6,20.6l5.9,5.9c-3.9,3.6-9.1,5.6-14.6,5.6
	c-0.9,0-1.8-0.1-2.7-0.2L19.6,20.6z M31.6,5.9c-1.1-0.1-2.2-0.2-3.3-0.2c-5.9,0-11.4,2.1-15.6,6.1L7.3,6.3c3.3-3,7.6-4.9,12.4-4.9
	C24.2,1.4,28.4,3.1,31.6,5.9z M1.4,19.6c0-4.8,1.8-9.1,4.9-12.4l5.4,5.4C7.1,17.6,5,24.6,5.9,31.6C3.1,28.4,1.4,24.2,1.4,19.6z
	 M7.7,33.4c1.1,0.1,2.2,0.2,3.3,0.2h0c5.9,0,11.4-2.1,15.6-6.1L32,33c-3.3,3-7.6,4.9-12.4,4.9C15.1,37.9,10.9,36.2,7.7,33.4z M33,32
	l-5.4-5.4c4.6-4.9,6.8-11.9,5.8-18.9c2.8,3.2,4.5,7.4,4.5,12C37.9,24.4,36,28.8,33,32z"/>
</svg>
