<?xml version="1.0" encoding="utf-8"?>
<!-- Generator: Adobe Illustrator 19.0.0, SVG Export Plug-In . SVG Version: 6.00 Build 0)  -->
<svg version="1.1" id="Layer_1" xmlns="http://www.w3.org/2000/svg" xmlns:xlink="http://www.w3.org/1999/xlink" x="0px" y="0px"
	 viewBox="0 0 60 38" style="enable-background:new 0 0 60 38;" xml:space="preserve">
<style type="text/css">
	.st0{fill:#162A36;}
</style>
<g>
	<path class="st0" d="M21.7,14h16.6c-1.8-2.4-4.8-4-8.3-4S23.5,11.6,21.7,14z"/>
	<path class="st0" d="M20.1,18c0,0.3-0.1,0.7-0.1,1v3h20v-3c0-0.3,0-0.7-0.1-1H20.1z"/>
	<path class="st0" d="M20,29c0,0.3,0,0.7,0.1,1h19.9c0-0.3,0.1-0.7,0.1-1v-3H20V29z"/>
	<path class="st0" d="M30,38c3.5,0,6.5-1.6,8.3-4H21.7C23.5,36.4,26.5,38,30,38z"/>
	<path class="st0" d="M4.5,16.1c-0.9,0.4-1.7,0.9-2.3,1.6c-0.7,0.7-1.2,1.5-1.6,2.3C0.2,20.9,0,21.8,0,22.8c0,0.9,0.2,1.9,0.6,2.8
		c0.4,0.9,0.9,1.7,1.6,2.3c0.7,0.7,1.5,1.2,2.3,1.6C5.3,29.8,6.3,30,7.2,30c0,0,0,0,0,0h0c0.9,0,1.9-0.2,2.8-0.6
		c0.9-0.4,1.7-0.9,2.3-1.6c0.7-0.7,1.2-1.5,1.6-2.3L20,10L4.5,16.1z M12.1,24.8c-0.3,0.6-0.6,1.2-1.1,1.7c-0.5,0.5-1.1,0.9-1.7,1.1
		c-0.6,0.3-1.3,0.4-2,0.4c-0.7,0-1.4-0.1-2-0.4C4.6,27.3,4,27,3.5,26.5C3,26,2.7,25.4,2.4,24.8c-0.3-0.6-0.4-1.3-0.4-2
		c0-0.7,0.1-1.4,0.4-2c0.3-0.6,0.6-1.2,1.1-1.7C4,18.6,4.6,18.2,5.2,18l11.3-4.4L12.1,24.8z"/>
	<path class="st0" d="M59.4,20c-0.4-0.9-0.9-1.7-1.6-2.3c-0.7-0.7-1.5-1.2-2.3-1.6L40,10l6.1,15.5c0.4,0.9,0.9,1.7,1.6,2.3
		c0.7,0.7,1.5,1.2,2.3,1.6c0.9,0.4,1.8,0.6,2.8,0.6c0,0,0,0,0,0c0,0,0,0,0,0c0.9,0,1.9-0.2,2.8-0.5c0.9-0.4,1.7-0.9,2.3-1.6
		c0.7-0.7,1.2-1.5,1.6-2.3c0.4-0.9,0.6-1.8,0.6-2.8C60,21.8,59.8,20.9,59.4,20z M57.6,24.8c-0.3,0.6-0.6,1.2-1.1,1.7
		c-0.5,0.5-1.1,0.9-1.7,1.1c-0.6,0.3-1.3,0.4-2,0.4c-0.7,0-1.3-0.1-2-0.4c-0.6-0.3-1.2-0.6-1.7-1.1c-0.5-0.5-0.9-1.1-1.1-1.7
		l-4.4-11.3l11.2,4.4c0.6,0.3,1.2,0.6,1.7,1.1c0.5,0.5,0.9,1.1,1.1,1.7c0.3,0.6,0.4,1.3,0.4,2C58,23.5,57.9,24.1,57.6,24.8z"/>
	<path class="st0" d="M25,8c2.2,0,4-1.8,4-4s-1.8-4-4-4s-4,1.8-4,4S22.8,8,25,8z M25,2c1.1,0,2,0.9,2,2s-0.9,2-2,2c-1.1,0-2-0.9-2-2
		S23.9,2,25,2z"/>
	<path class="st0" d="M35,8c2.2,0,4-1.8,4-4s-1.8-4-4-4s-4,1.8-4,4S32.8,8,35,8z M35,2c1.1,0,2,0.9,2,2s-0.9,2-2,2s-2-0.9-2-2
		S33.9,2,35,2z"/>
</g>
</svg>
