<?xml version="1.0" encoding="utf-8"?>
<!-- Generator: Adobe Illustrator 19.0.0, SVG Export Plug-In . SVG Version: 6.00 Build 0)  -->
<svg version="1.1" id="Layer_1" xmlns="http://www.w3.org/2000/svg" xmlns:xlink="http://www.w3.org/1999/xlink" x="0px" y="0px"
	 viewBox="0 0 54.6 36.4" style="enable-background:new 0 0 54.6 36.4;" xml:space="preserve">
<style type="text/css">
	.st0{fill:#162A36;}
</style>
<g>
	<path class="st0" d="M51,7.3V3.6h-1.8h-1.8V1.8V0h-1.8H9.1H7.3v1.8v1.8H5.5H3.6v3.6H0v29.1h54.6V7.3H51z M9.1,1.8h36.4v1.8H9.1V1.8
		z M52.8,34.6h-51V9.1h1.8H51h1.8V34.6z"/>
	<polygon class="st0" points="32.8,21.8 21.8,21.8 21.8,20 20,20 20,21.8 20,23.7 21.8,23.7 32.8,23.7 34.6,23.7 34.6,21.8 34.6,20 
		32.8,20 	"/>
</g>
</svg>
