<?xml version="1.0" encoding="UTF-8" standalone="no"?>
<svg width="24px" height="23px" viewBox="0 0 24 23" version="1.1" xmlns="http://www.w3.org/2000/svg" xmlns:xlink="http://www.w3.org/1999/xlink" xmlns:sketch="http://www.bohemiancoding.com/sketch/ns">
    <!-- Generator: Sketch 3.4.4 (17249) - http://www.bohemiancoding.com/sketch -->
    <title>Page 1 + Fill 6</title>
    <desc>Created with Sketch.</desc>
    <defs></defs>
    <g id="Page-1" stroke="none" stroke-width="1" fill="none" fill-rule="evenodd" sketch:type="MSPage">
        <g id="Create-Card-Modal" sketch:type="MSArtboardGroup" transform="translate(-646.000000, -4767.000000)">
            <g id="Page-1-+-Fill-6" sketch:type="MSLayerGroup" transform="translate(641.000000, 4762.000000)">
                <g id="Page-1" transform="translate(14.500000, 13.000000)"></g>
                <path d="M17.52,9.988 C21.043,10.324 23.799,13.29 23.799,16.901 C23.799,20.737 20.688,23.847 16.852,23.847 C13.479,23.847 10.67,21.444 10.04,18.256 L5,18.256 C5.674,24.208 10.72,28.835 16.852,28.835 C23.443,28.835 28.786,23.492 28.786,16.901 C28.786,10.535 23.799,5.349 17.52,5 L17.52,9.988 Z" id="Fill-6" fill="#3C3C3B" sketch:type="MSShapeGroup" transform="translate(16.893000, 16.917500) rotate(-135.000000) translate(-16.893000, -16.917500) "></path>
                <path d="M15.3574,28 L18.6434,28 L17.0004,13.214 L15.3574,28 Z" id="Fill-4" fill="#3C3C3B" sketch:type="MSShapeGroup"></path>
            </g>
        </g>
    </g>
</svg>