<?xml version="1.0" encoding="UTF-8" standalone="no"?>
<svg width="18px" height="18px" viewBox="0 0 18 18" version="1.1" xmlns="http://www.w3.org/2000/svg" xmlns:xlink="http://www.w3.org/1999/xlink" xmlns:sketch="http://www.bohemiancoding.com/sketch/ns">
    <!-- Generator: Sketch 3.4.4 (17249) - http://www.bohemiancoding.com/sketch -->
    <title>Page 1 Copy</title>
    <desc>Created with Sketch.</desc>
    <defs></defs>
    <g id="Page-1" stroke="none" stroke-width="1" fill="none" fill-rule="evenodd" sketch:type="MSPage">
        <g id="Page-1-Copy" sketch:type="MSLayerGroup" fill="#3C3C3B">
            <path d="M12.94,18 L17.939,18 L17.939,11.118 L12.94,11.118 L12.94,18 Z M13.94,12.118 L16.94,12.118 L16.94,17.001 L13.94,17.001 L13.94,12.118 Z" id="Fill-1" sketch:type="MSShapeGroup"></path>
            <path d="M6.47,18 L11.469,18 L11.469,17 L6.47,17 L6.47,18 Z" id="Fill-2" sketch:type="MSShapeGroup"></path>
            <path d="M6.47,15.686 L11.469,15.686 L11.469,14.686 L6.47,14.686 L6.47,15.686 Z" id="Fill-3" sketch:type="MSShapeGroup"></path>
            <path d="M6.47,13.372 L11.469,13.372 L11.469,12.372 L6.47,12.372 L6.47,13.372 Z" id="Fill-4" sketch:type="MSShapeGroup"></path>
            <path d="M6.47,11.058 L11.469,11.058 L11.469,10.058 L6.47,10.058 L6.47,11.058 Z" id="Fill-5" sketch:type="MSShapeGroup"></path>
            <path d="M6.47,8.744 L11.469,8.744 L11.469,7.743 L6.47,7.743 L6.47,8.744 Z" id="Fill-6" sketch:type="MSShapeGroup"></path>
            <path d="M0,18 L5,18 L5,0.069 L0,0.069 L0,18 Z" id="Fill-7" sketch:type="MSShapeGroup"></path>
        </g>
    </g>
</svg>