<?xml version="1.0" encoding="UTF-8" standalone="no"?>
<svg width="24px" height="24px" viewBox="0 0 24 24" version="1.1" xmlns="http://www.w3.org/2000/svg" xmlns:xlink="http://www.w3.org/1999/xlink" xmlns:sketch="http://www.bohemiancoding.com/sketch/ns">
    <!-- Generator: Sketch 3.4.4 (17249) - http://www.bohemiancoding.com/sketch -->
    <title>Page 1</title>
    <desc>Created with Sketch.</desc>
    <defs></defs>
    <g id="Page-1" stroke="none" stroke-width="1" fill="none" fill-rule="evenodd" sketch:type="MSPage">
        <g id="Create-Card-Modal" sketch:type="MSArtboardGroup" transform="translate(-577.000000, -4767.000000)" fill="#3C3C3B">
            <g id="Page-1" sketch:type="MSLayerGroup" transform="translate(577.000000, 4767.000000)">
                <path d="M4.988,11.421 C5.273,8.332 7.577,5.831 10.57,5.25 L10.57,0.21 C4.818,0.849 0.314,5.576 0,11.421 L4.988,11.421 Z" id="Fill-1" sketch:type="MSShapeGroup"></path>
                <path d="M12.5703,5.1529 C16.0933,5.4889 18.8493,8.4549 18.8493,12.0659 C18.8493,15.9019 15.7383,19.0119 11.9023,19.0119 C8.5293,19.0119 5.7203,16.6089 5.0903,13.4209 L0.0503,13.4209 C0.7243,19.3729 5.7703,23.9999 11.9023,23.9999 C18.4933,23.9999 23.8363,18.6569 23.8363,12.0659 C23.8363,5.6999 18.8493,0.5139 12.5703,0.1649 L12.5703,5.1529 Z" id="Fill-6" sketch:type="MSShapeGroup"></path>
            </g>
        </g>
    </g>
</svg>