<?xml version="1.0" encoding="UTF-8" standalone="no"?>
<svg width="17px" height="19px" viewBox="0 0 17 19" version="1.1" xmlns="http://www.w3.org/2000/svg" xmlns:xlink="http://www.w3.org/1999/xlink" xmlns:sketch="http://www.bohemiancoding.com/sketch/ns">
    <!-- Generator: Sketch 3.4.4 (17249) - http://www.bohemiancoding.com/sketch -->
    <title>Page 1</title>
    <desc>Created with Sketch.</desc>
    <defs></defs>
    <g id="Page-1" stroke="none" stroke-width="1" fill="none" fill-rule="evenodd" sketch:type="MSPage">
        <g id="Create-Card-Modal" sketch:type="MSArtboardGroup" transform="translate(-856.000000, -4769.000000)" fill="#3C3C3B">
            <g id="Page-1" sketch:type="MSLayerGroup" transform="translate(856.000000, 4769.000000)">
                <g sketch:type="MSShapeGroup">
                    <g id="Group-3">
                        <path d="M4.383,8.0768 C2.558,8.0768 1.079,6.5978 1.079,4.7728 C1.079,2.9478 2.558,1.4688 4.383,1.4688 C6.208,1.4688 7.687,2.9478 7.687,4.7728 C7.687,6.5978 6.208,8.0768 4.383,8.0768 M12.07,0.3898 L4.383,0.3898 C1.963,0.3898 0,2.3528 0,4.7728 C0,7.1938 1.963,9.1558 4.383,9.1558 L12.07,9.1558 C14.49,9.1558 16.452,7.1938 16.452,4.7728 C16.452,2.3528 14.49,0.3898 12.07,0.3898" id="Fill-1"></path>
                    </g>
                    <path d="M12.0696,17.921 C10.2446,17.921 8.7656,16.442 8.7656,14.617 C8.7656,12.792 10.2446,11.313 12.0696,11.313 C13.8946,11.313 15.3736,12.792 15.3736,14.617 C15.3736,16.442 13.8946,17.921 12.0696,17.921 M12.0696,10.234 L4.3826,10.234 C1.9626,10.234 0.0006,12.197 0.0006,14.617 C0.0006,17.038 1.9626,19 4.3826,19 L12.0696,19 C14.4906,19 16.4526,17.038 16.4526,14.617 C16.4526,12.197 14.4906,10.234 12.0696,10.234" id="Fill-4"></path>
                </g>
            </g>
        </g>
    </g>
</svg>