<?xml version="1.0" encoding="UTF-8" standalone="no"?>
<svg id="Layer_1" data-name="Layer 1" xmlns="http://www.w3.org/2000/svg" viewBox="0 0 393.55 122.38">
  <defs><style>.cls-1{fill:#128cab;}</style></defs><title>Artboard 2</title>
  <path class="cls-1" d="M139.07,122.38H106.23l-10-24.22H41.45L32.3,122.38H0L49.35,0H84.7ZM67.47,29.25,49.53,76.8H87.21Z"/>
  <path class="cls-1" d="M200.84,0c25.12,0,40,16.87,40,35.17,0,13.46-7,23.51-21,30,12.56,6.29,16.33,21.35,33.56,57.24H219.87c-13.1-26.2-17.95-49.7-34.46-49.7h-8.79v49.7h-30.5V0ZM176.62,50.24h16.15c8.44,0,16.69-3.59,16.69-14,0-9.15-5.92-13.82-17.4-13.82H176.62Z"/>
  <path class="cls-1" d="M367,0h26.55V122.38h-30.5V45.94l-33,38.4h-4.66l-33-38.4v76.44H261.84V0H288.4l39.3,45.4Z"/>
</svg>
