<svg id="Layer_1" data-name="Layer 1" xmlns="http://www.w3.org/2000/svg" xmlns:xlink="http://www.w3.org/1999/xlink" viewBox="0 0 32 32"><defs><style>.cls-1{fill:#4178be;}.cls-2{fill:#fff;}.cls-3{fill:#5aaafa;}.cls-4{fill:#2d3f4a;}</style><symbol id="New_Symbol" data-name="New Symbol" viewBox="0 0 32 32"><circle class="cls-1" cx="16" cy="16" r="16"/><path class="cls-2" d="M7.86,25.14L3.61,22.85V18.15l4.25-2.29,4.25,2.29v4.69ZM5.61,21.65l2.25,1.21,2.25-1.21V19.35L7.86,18.14,5.61,19.35v2.31Z"/><path class="cls-2" d="M24.36,16.14l-4.25-2.29V9.15l4.25-2.29,4.25,2.29v4.69Zm-2.25-3.48,2.25,1.21,2.25-1.21V10.35L24.36,9.14l-2.25,1.21v2.31Z"/><path class="cls-3" d="M7.5,12A2.5,2.5,0,1,1,10,9.5,2.5,2.5,0,0,1,7.5,12Zm0-4A1.5,1.5,0,1,0,9,9.5,1.5,1.5,0,0,0,7.5,8Z"/><circle class="cls-3" cx="16" cy="5" r="2"/><path class="cls-3" d="M24.5,25.5A2.5,2.5,0,1,1,27,23,2.5,2.5,0,0,1,24.5,25.5Zm0-4A1.5,1.5,0,1,0,26,23,1.5,1.5,0,0,0,24.5,21.5Z"/><circle class="cls-3" cx="16" cy="27" r="2"/><path class="cls-4" d="M16.11,9.43l-6,3.27V19.3l6,3.27,6-3.27V12.7ZM15.86,21.29L11.11,18.7V13.5l4.75,2.16v5.63Zm-4.41-8.19,4.66-2.54,4.66,2.54-4.66,2.12Zm9.66,5.59-4.75,2.59V15.66l4.75-2.16v5.2Z"/><polygon class="cls-3" points="11.11 18.7 15.86 21.29 15.86 15.66 11.11 13.5 11.11 18.7"/><polygon class="cls-3" points="16.36 21.29 21.11 18.7 21.11 13.5 16.36 15.66 16.36 21.29"/><polygon class="cls-3" points="16.11 15.23 20.77 13.11 16.11 10.57 11.46 13.11 16.11 15.23"/></symbol></defs><title>IBM_Blockchain_BMX_icon</title><use id="New_Symbol-3" data-name="New Symbol" width="32" height="32" xlink:href="#New_Symbol"/></svg>