<svg id="83aba278-d94f-4bfd-8a13-807cea77fd4f" data-name="Layer 1" xmlns="http://www.w3.org/2000/svg" width="34.57mm" height="34.18mm" viewBox="0 0 98 96.9"><defs><style>.\31 eb15015-bc28-4e5d-8af0-d99bf2b28380{fill:#fff;}.\39 b761304-17f8-4747-a81a-26b1f6592545{fill:#1d3649;}.\39 16c9d8b-e173-46e6-b3f8-60f2c4c49a50{fill:#00b4a0;}.\35 866fe27-8781-43db-8a9a-2b24442005f9{fill:#5aaafa;}</style></defs><title>Bluemix-Logo-100</title><polygon class="1eb15015-bc28-4e5d-8af0-d99bf2b28380" points="56 96.9 42 72.7 56 48.4 84 48.4 98 72.7 84 96.9 56 96.9"/><polygon class="1eb15015-bc28-4e5d-8af0-d99bf2b28380" points="56 48.5 42 24.3 56 0 84 0 98 24.3 84 48.5 56 48.5"/><polygon class="1eb15015-bc28-4e5d-8af0-d99bf2b28380" points="14 72.8 0 48.5 14 24.3 42 24.3 56 48.5 42 72.8 14 72.8"/><path class="9b761304-17f8-4747-a81a-26b1f6592545" d="M30.1,48.5a25.68,25.68,0,0,0,7.5,18.3c.5.5,1.1,1,1.6,1.5V28.7c-.6.5-1.1,1-1.6,1.5a25.18,25.18,0,0,0-5.5,8.2A26.75,26.75,0,0,0,30.1,48.5Z"/><path class="916c9d8b-e173-46e6-b3f8-60f2c4c49a50" d="M74.3,30.2a25.18,25.18,0,0,0-8.2-5.5,26.75,26.75,0,0,0-10.1-2,26.25,26.25,0,0,0-8.8,1.5L81.5,44a27.51,27.51,0,0,0-1.6-5.6A28.45,28.45,0,0,0,74.3,30.2Z"/><path class="916c9d8b-e173-46e6-b3f8-60f2c4c49a50" d="M44,25.6h0L56.6,47.5H81.9v-.8L44.8,25.3A1.91,1.91,0,0,0,44,25.6Z"/><path class="5866fe27-8781-43db-8a9a-2b24442005f9" d="M81.8,49.6H56.5L43.9,71.5h0c.2.1.5.3.7.4L81.7,50.5A3.45,3.45,0,0,0,81.8,49.6Z"/><path class="5866fe27-8781-43db-8a9a-2b24442005f9" d="M66.1,72.4a26.86,26.86,0,0,0,8.2-5.5,24.16,24.16,0,0,0,5.5-8.2,22.34,22.34,0,0,0,1.6-5.6L47.1,72.9A26.47,26.47,0,0,0,56,74.5,28.93,28.93,0,0,0,66.1,72.4Z"/><path class="9b761304-17f8-4747-a81a-26b1f6592545" d="M54.7,48.5h0L42.1,26.6h0c-.1.1-.7.5-.7.5V69.9c.2.2.5.3.7.5h0Z"/><path class="916c9d8b-e173-46e6-b3f8-60f2c4c49a50" d="M56,20.6A27.91,27.91,0,0,1,83.7,45.2c0,.4.1.8.1,1.2h0L96.6,24.3,83.3,1.2H56.6L43.8,23.4a6.12,6.12,0,0,1,1.2-.5A26.75,26.75,0,0,1,56,20.6Z"/><path class="5866fe27-8781-43db-8a9a-2b24442005f9" d="M83.8,50.5h0c0,.4-.1.8-.1,1.2A27.92,27.92,0,0,1,56,76.4a27.57,27.57,0,0,1-11.1-2.3,11.73,11.73,0,0,1-1.1-.5L56.6,95.7H83.3L96.6,72.6Z"/><path class="9b761304-17f8-4747-a81a-26b1f6592545" d="M40.4,25.4H14.7L1.4,48.5,14.7,71.6H40.3c-.3-.2-.7-.5-1-.7a27.8,27.8,0,0,1,0-44.6A4.36,4.36,0,0,1,40.4,25.4Z"/></svg>