<?xml version="1.0" encoding="UTF-8" standalone="no"?>
<svg width="36px" height="35px" viewBox="0 0 36 35" version="1.1" xmlns="http://www.w3.org/2000/svg" xmlns:xlink="http://www.w3.org/1999/xlink">
    <!-- Generator: Sketch 39.1 (31720) - http://www.bohemiancoding.com/sketch -->
    <title>Group 2</title>
    <desc>Created with Sketch.</desc>
    <defs></defs>
    <g id="Page-1" stroke="none" stroke-width="1" fill="none" fill-rule="evenodd">
      <path d="M35.1403538,17.2609819 C35.1403538,18.3049093 34.3419554,19.1033077 33.298028,19.1033077 C32.2541006,19.1033077 31.4557021,18.3049093 31.4557021,17.2609819 C31.4557021,16.2170544 32.2541006,15.418656 33.298028,15.418656 C34.3419554,15.418656 35.1403538,16.2170544 35.1403538,17.2609819 L35.1403538,17.2609819 Z" id="Shape" fill="#2E3636"></path>
      <path d="M17.8840733,26.8411908 C17.392443,31.1399511 13.7696028,34.4560232 9.34779183,34.4560232 C4.6192127,34.4560232 0.750271169,30.5870817 0.750271169,25.8585025 C0.750271169,23.402068 1.79419859,21.1911626 3.39099546,19.6561772 C2.53135786,17.8138513 1.97848841,15.7259965 1.97848841,13.5763301 C1.97848841,6.14578755 8.05833543,0.0659405242 15.488878,0.0659405242 C22.9194206,0.0659405242 28.9992676,6.14578755 28.9992676,13.5763301 C28.9992676,20.2084743 24.2094493,25.7354519 17.8840733,26.8411908 L17.8840733,26.8411908 Z" id="Path" fill="#2E3636"></path>
      <path d="M27.1569418,13.5763301 C27.1569418,7.12790348 21.9367324,1.90826638 15.488878,1.90826638 C9.04102369,1.90826638 3.82081426,7.12790348 3.82081426,13.5763301 C3.82081426,15.3574168 4.25063306,17.0154529 4.92598085,18.4891991 C6.21543725,17.6908007 7.75099496,17.2609819 9.34779183,17.2609819 C13.830842,17.2609819 17.4542545,20.6388654 17.8840733,24.9988649 C23.1655219,23.893126 27.1569418,19.1645469 27.1569418,13.5763301 L27.1569418,13.5763301 Z" id="Path" fill="#FFFFFF"></path>
      <path d="M30.2274849,23.402068 C27.8322896,23.402068 25.9287245,25.3056331 25.9287245,27.7008284 C25.9287245,30.0960237 27.8322896,31.9995887 30.2274849,31.9995887 C32.6226802,31.9995887 34.5262452,30.0960237 34.5262452,27.7008284 C34.5262452,25.3056331 32.6226802,23.402068 30.2274849,23.402068 L30.2274849,23.402068 Z" id="Path" fill="#39D0B6"></path>
    </g>
</svg>
