<?xml version="1.0" encoding="utf-8"?>
<!-- Generator: Adobe Illustrator 18.1.1, SVG Export Plug-In . SVG Version: 6.00 Build 0)  -->
<svg version="1.1" id="Layer_1" xmlns="http://www.w3.org/2000/svg" xmlns:xlink="http://www.w3.org/1999/xlink" x="0px" y="0px"
	 viewBox="16.8 123.4 519.9 586" enable-background="new 16.8 123.4 519.9 586" xml:space="preserve">
<g>
	<rect x="344.1" y="215.9" fill="#5AAAFA" width="27.9" height="116.7"/>
	<path fill="#5AAAFA" d="M358.1,236.8c-31.6,0-56.7-25.1-56.7-56.7c0-31.6,25.1-56.7,56.7-56.7s56.7,25.1,56.7,56.7
		C414.8,211.7,389.7,236.8,358.1,236.8z M358.1,151.2c-15.8,0-28.8,13-28.8,28.8s13,28.8,28.8,28.8s28.8-13,28.8-28.8
		S373.9,151.2,358.1,151.2z"/>
	
		<rect x="193.3" y="257.3" transform="matrix(-0.7071 0.7071 -0.7071 -0.7071 569.7847 374.4973)" fill="#5AAAFA" width="28.1" height="95.9"/>
	<path fill="#5AAAFA" d="M140.4,295.4L140.4,295.4c-14.9,0-29.8-5.6-40-16.7c-22.3-22.3-22.3-58.6,0-80c11.2-11.2,25.1-16.7,40-16.7
		c14.9,0,29.8,5.6,40,16.7c22.3,22.3,22.3,58.6,0,80C170.2,289.8,155.3,295.4,140.4,295.4z M141.4,209.8c-7.4,0-14.9,2.8-20.5,8.4
		c-11.2,11.2-11.2,29.8,0,40.9c11.2,11.2,29.8,11.2,40.9,0c11.2-11.2,11.2-29.8,0-40.9C156.3,212.6,148.8,209.8,141.4,209.8z"/>
	<path fill="#5AAAFA" d="M484.6,324.2C452,292.6,407.4,273,358.1,273s-93.9,19.5-126.5,51.2c-32.6,31.6-52.1,79.1-52.1,127.4
		c0,48.4,20.5,88.4,52.1,119.1c32.6,31.6,77.2,51.2,126.5,51.2v87.4l126.5-131.1c32.6-33.5,52.1-75.3,52.1-126.5
		C536.7,403.3,517.1,355.8,484.6,324.2z M359,550.4c-57.5,0-104.2-46.6-104.2-104.2S301.5,342.1,359,342.1s104.2,46.6,104.2,104.2
		S416.6,550.4,359,550.4z"/>
	<rect x="110" y="441" fill="#323C3C" width="138.8" height="24.9"/>
	<path fill="#323C3C" d="M73.5,510.2c-31.6,0-56.7-25.1-56.7-56.7s25.1-56.7,56.7-56.7s56.7,25.1,56.7,56.7S105.1,510.2,73.5,510.2z
		 M73.5,424.7c-15.8,0-28.8,13-28.8,28.8c0,15.8,13,28.8,28.8,28.8s28.8-13,28.8-28.8C102.3,437.7,89.3,424.7,73.5,424.7z"/>
	<path fill="#323C3C" d="M536.4,441.2h-73.3c0.1,1.7,0.1,3.4,0.1,5.1c0,57.5-46.6,104.2-104.2,104.2s-104.2-46.6-104.2-104.2
		c0-1.7,0-3.5,0.1-5.2h-75.2c-0.9,3.7-0.3,6-0.3,10.6c0,48.4,20.5,88.4,52.1,119.1C264.1,602.4,308.7,622,358,622v87.4l126.5-131.1
		c32.6-33.5,52.1-73.5,52.1-124.6C536.7,449.8,536.7,446.1,536.4,441.2z"/>
</g>
</svg>
